<svg width="52" height="49" viewBox="0 0 52 49" fill="none" xmlns="http://www.w3.org/2000/svg">
<g opacity="0.4">
<g clip-path="url(#clip0_2856_170)">
<path d="M36.383 18.1559C35.6196 18.4936 34.81 18.7154 33.981 18.8139C34.8548 18.2914 35.5087 17.4689 35.821 16.4999C35.001 16.9879 34.102 17.3299 33.165 17.5149C32.5356 16.8415 31.7014 16.3949 30.792 16.2445C29.8826 16.0941 28.9489 16.2484 28.1363 16.6834C27.3236 17.1183 26.6774 17.8096 26.2981 18.6497C25.9188 19.4898 25.8277 20.4317 26.039 21.3289C24.3761 21.2456 22.7493 20.8134 21.2643 20.0606C19.7792 19.3077 18.4691 18.251 17.419 16.9589C17.0473 17.5974 16.852 18.3232 16.853 19.0619C16.853 20.5119 17.591 21.7929 18.713 22.5429C18.049 22.522 17.3996 22.3427 16.819 22.0199V22.0719C16.8192 23.0376 17.1534 23.9735 17.7648 24.721C18.3763 25.4684 19.2275 25.9814 20.174 26.1729C19.5576 26.34 18.9113 26.3646 18.284 26.2449C18.5509 27.0762 19.071 27.8031 19.7716 28.324C20.4722 28.8449 21.3181 29.1337 22.191 29.1499C21.3235 29.8313 20.3302 30.3349 19.2679 30.6321C18.2056 30.9293 17.0951 31.0142 16 30.8819C17.9117 32.1114 20.1371 32.764 22.41 32.7619C30.103 32.7619 34.31 26.3889 34.31 20.8619C34.31 20.6819 34.305 20.4999 34.297 20.3219C35.1159 19.7301 35.8226 18.9969 36.384 18.1569L36.383 18.1559Z" fill="#607B96"/>
</g>
</g>
<defs>
<clipPath id="clip0_2856_170">
<rect width="24" height="24" fill="white" transform="translate(14 12.5)"/>
</clipPath>
</defs>
</svg>
